Coordinates
version=1
nRows=16
nColumns=40
inDegrees=yes

Units are S.I. units (second, meters, Newtons, ...)
Angles are in degrees.

endheader
time	pelvis_tilt	pelvis_list	pelvis_rotation	pelvis_tx	pelvis_ty	pelvis_tz	hip_flexion_r	hip_adduction_r	hip_rotation_r	knee_angle_r	knee_angle_r_beta	ankle_angle_r	subtalar_angle_r	mtp_angle_r	hip_flexion_l	hip_adduction_l	hip_rotation_l	knee_angle_l	knee_angle_l_beta	ankle_angle_l	subtalar_angle_l	mtp_angle_l	lumbar_extension	lumbar_bending	lumbar_rotation	arm_flex_r	arm_add_r	arm_rot_r	elbow_flex_r	pro_sup_r	wrist_flex_r	wrist_dev_r	arm_flex_l	arm_add_l	arm_rot_l	elbow_flex_l	pro_sup_l	wrist_flex_l	wrist_dev_l
     16.18500000	     -5.50667058	     -6.00641032	     11.21385473	      0.91617282	      0.91787113	      0.48043986	     -0.84539752	      2.69890152	    -18.02100478	     17.68191590	     17.68191590	     17.82486463	     -3.01606355	     -1.69003206	     29.53916501	     -4.81360971	      2.53573088	     22.52473603	     22.52473603	      1.86278535	    -10.98932198	     -2.66432019	     -7.99443221	      1.50403075	      5.24930266	     59.48708794	    -20.14153539	     -5.18710366	     95.46810223	     44.31012585	      0.00000000	      0.00000000	     -6.06930595	    -10.64325414	     10.08716140	     36.47366062	     44.18006185	      0.00000000	      0.00000000
     16.20457143	     -5.63274888	     -6.01330518	     10.90222352	      0.91686450	      0.91888779	      0.47577560	     -0.63139858	      2.17462994	    -17.94632384	     18.63678936	     18.63678936	     16.56567165	     -3.40541095	     -4.12241131	     29.36526237	     -4.80764551	      1.85366855	     23.13390520	     23.13390520	      3.91851011	     -9.71817780	     -0.35643047	     -7.84132099	      1.43748949	      4.52129829	     59.54032984	    -18.77499767	     -5.26283753	     92.68919845	     44.47572486	      0.00000000	      0.00000000	     -6.06459179	    -10.63670298	      6.92509561	     38.41926462	     44.68539734	      0.00000000	      0.00000000
     16.22414286	     -5.69578880	     -5.98783123	     10.52872319	      0.91748418	      0.91992477	      0.47120366	     -0.10629516	      1.51915690	    -17.74309412	     20.36527601	     20.36527601	     16.00981581	     -3.86610621	     -4.64062518	     28.86935471	     -4.75790389	      1.29753369	     23.21423795	     23.21423795	      4.62211480	     -9.41807258	     -0.71052851	     -7.76755523	      1.37793692	      4.75941623	     58.68116249	    -18.90000193	     -5.28173964	     91.63554670	     44.51937222	      0.00000000	      0.00000000	     -4.91922317	    -10.82001374	      6.41662257	     38.74994462	     44.77812261	      0.00000000	      0.00000000
     16.24371429	     -5.65642141	     -5.91640568	     10.11972397	      0.91802378	      0.92106742	      0.46680761	      0.53013962	      0.78829724	    -17.47376561	     22.47620245	     22.47620245	     15.31854734	     -4.52256715	     -5.25205536	     28.23323586	     -4.72131244	      0.62760406	     23.25198031	     23.25198031	      5.32673504	     -8.99898202	     -1.06749118	     -7.81275240	      1.24158890	      4.79918602	     57.65647087	    -18.76799434	     -5.31415558	     90.47294939	     44.56195370	      0.00000000	      0.00000000	     -3.78170402	    -11.05824740	      6.00726396	     38.98502330	     44.85218857	      0.00000000	      0.00000000
     16.26328571	     -5.66619470	     -5.85825785	      9.68447577	      0.91837699	      0.92202378	      0.46261368	      1.52961275	      0.01043096	    -17.12521623	     25.07967517	     25.07967517	     14.43327329	     -5.53423981	     -6.08567373	     27.64741401	     -4.72851344	     -0.17063972	     23.25806246	     23.25806246	      6.02090541	     -8.37823606	     -1.43867578	     -7.78797281	      1.13722085	      4.76260212	     56.51218611	    -18.51376439	     -5.39558737	     89.00106172	     44.61603550	      0.00000000	      0.00000000	     -2.54401601	    -11.31669096	      5.54992624	     39.02753398	     44.93273582	      0.00000000	      0.00000000
     16.28285714	     -5.56700056	     -5.84806799	      9.25747353	      0.91871245	      0.92303857	      0.45867956	      2.48088590	     -0.60330042	    -16.57383570	     27.56605880	     27.56605880	     12.14911515	     -7.74691908	    -10.02897854	     27.03356911	     -4.86461289	     -1.13609901	     23.42593158	     23.42593158	      7.03300646	     -7.33187415	     -1.26281845	     -7.77115011	      1.11037902	      4.23692289	     55.55762046	    -17.56152892	     -5.45762468	     86.17433678	     44.78805465	      0.00000000	      0.00000000	     -1.11964260	    -11.00257361	      2.68768262	     37.76360040	     45.38470133	      0.00000000	      0.00000000
     16.30242857	     -5.45159204	     -5.67419643	      8.79506582	      0.91887483	      0.92400783	      0.45484833	      3.84056690	     -1.57350885	    -16.22414546	     30.99488889	     30.99488889	     11.12526395	     -8.99859119	    -10.30586406	     26.26553943	     -4.77146517	     -1.94428692	     23.35486170	     23.35486170	      7.58838009	     -6.90245550	     -1.60078389	     -7.88230392	      0.89475311	      4.02906972	     53.87081158	    -17.19358068	     -5.32290925	     85.09021831	     44.81731122	      0.00000000	      0.00000000	      0.19664872	    -11.40123610	      2.55913752	     37.75626584	     45.42208541	      0.00000000	      0.00000000
     16.32200000	     -5.36311907	     -5.56003584	      8.30815750	      0.91896583	      0.92479407	      0.45131954	      5.43985195	     -2.42324878	    -15.70013637	     34.65137090	     34.65137090	      9.89039459	    -10.70544106	    -10.40780535	     25.55771692	     -4.75531217	     -2.77285472	     23.30925805	     23.30925805	      8.15879285	     -6.38165778	     -1.94009443	     -7.88153753	      0.74335769	      3.81112549	     51.99768308	    -16.78916042	     -5.25388711	     83.48144657	     44.86600018	      0.00000000	      0.00000000	      1.69380354	    -11.73997409	      2.47926882	     37.21606631	     45.45608052	      0.00000000	      0.00000000
     16.34157143	     -5.19402494	     -5.43161508	      7.81017920	      0.91901702	      0.92560051	      0.44801209	      7.08989387	     -3.22725305	    -15.10301252	     38.41844802	     38.41844802	      8.53880524	    -12.56040199	    -10.16797426	     24.79539726	     -4.72590757	     -3.53547965	     23.31579542	     23.31579542	      8.72633138	     -5.97338062	     -2.21261321	     -7.93369518	      0.58885000	      3.53961886	     49.93185595	    -16.26369178	     -5.13544649	     81.59172853	     44.92185416	      0.00000000	      0.00000000	      3.37862442	    -12.02848448	      2.47617612	     36.18602923	     45.48398752	      0.00000000	      0.00000000
     16.36114286	     -4.88136089	     -5.30847925	      7.30006718	      0.91913870	      0.92645034	      0.44491053	      8.68511601	     -3.94861439	    -14.47823905	     42.25355472	     42.25355472	      7.53374250	    -14.18261500	     -8.63903309	     23.94260094	     -4.71247069	     -4.22336178	     23.44680460	     23.44680460	      9.38072119	     -5.72616400	     -2.30833687	     -8.02970689	      0.49600212	      3.26633501	     47.84879537	    -15.58464943	     -5.08701957	     78.78216304	     45.02135547	      0.00000000	      0.00000000	      5.80896980	    -12.11852396	      2.67033254	     33.06670937	     45.51103961	      0.00000000	      0.00000000
     16.38071429	     -4.61442346	     -5.11073646	      6.78251148	      0.91918076	      0.92705304	      0.44188383	     10.45560863	     -4.77485099	    -13.90635309	     46.22760882	     46.22760882	      6.94981186	    -15.31622641	     -5.96717669	     23.12549584	     -4.52372537	     -4.64667886	     23.54060789	     23.54060789	      9.90585747	     -5.97087726	     -2.31627126	     -8.10541944	      0.32644652	      3.08779966	     45.24743877	    -15.14092724	     -4.82293167	     76.76039230	     45.08812705	      0.00000000	      0.00000000	      7.94089771	    -12.25827073	      2.85523530	     31.09361400	     45.54387098	      0.00000000	      0.00000000
     16.40028571	     -4.24389087	     -4.88648190	      6.22486935	      0.91930547	      0.92757642	      0.43905313	     12.04212915	     -5.57691850	    -13.35527048	     49.85228698	     49.85228698	      5.75205327	    -16.67636977	     -5.41049212	     22.24715920	     -4.32053260	     -5.05727486	     23.73290838	     23.73290838	     10.41132766	     -6.36501178	     -2.46134136	     -8.37468602	      0.14987280	      2.77024427	     42.36221506	    -14.63486499	     -4.41730228	     75.36021788	     45.11014972	      0.00000000	      0.00000000	      9.23328571	    -12.63482021	      2.85659671	     31.13186620	     45.56721334	      0.00000000	      0.00000000
     16.41985714	     -3.88990082	     -4.76121325	      5.65957720	      0.91929288	      0.92786616	      0.43632328	     13.81954556	     -6.11282117	    -12.58526143	     53.59816553	     53.59816553	      6.14782789	    -17.37243098	     -0.50298246	     21.45320645	     -4.04929149	     -4.83073187	     23.95929596	     23.95929596	     10.74436831	     -7.78692450	     -2.28763494	     -8.40372141	      0.16595352	      2.72262863	     39.85081726	    -14.26180380	     -3.95893970	     71.64676227	     45.21700715	      0.00000000	      0.00000000	     11.60153425	    -12.60433433	      3.61928108	     28.64880241	     45.52047463	      0.00000000	      0.00000000
     16.43942857	     -3.50092145	     -4.61416781	      5.05390740	      0.91936304	      0.92788227	      0.43376055	     15.45421290	     -6.66510382	    -11.91646159	     56.94432300	     56.94432300	      6.26106908	    -17.93868236	      2.75070841	     20.73446047	     -3.79955128	     -4.74129328	     24.41031677	     24.41031677	     11.17360855	     -9.06719523	     -2.25170141	     -8.56277893	      0.14688276	      2.71745253	     36.81945176	    -13.97560071	     -3.53560244	     69.04904006	     45.28167918	      0.00000000	      0.00000000	     13.24392290	    -12.72464170	      4.04469234	     28.04142326	     45.50198098	      0.00000000	      0.00000000
     16.45900000	     -3.07482897	     -4.48159851	      4.43645993	      0.91942957	      0.92767622	      0.43129192	     17.01031265	     -7.07690975	    -11.14040273	     59.97992850	     59.97992850	      6.83907521	    -18.32013926	      6.62687526	     20.04283560	     -3.52017467	     -4.50626699	     24.97088779	     24.97088779	     11.62788462	    -10.58649293	     -2.07843627	     -8.73443504	      0.23562554	      2.47140137	     33.96332972	    -13.40306309	     -3.04994655	     65.79844435	     45.36541859	      0.00000000	      0.00000000	     14.77513997	    -12.90027417	      4.69497119	     27.27186670	     45.45413015	      0.00000000	      0.00000000
     16.47857143	     -2.62681199	     -4.38827861	      3.78766370	      0.91946277	      0.92716082	      0.42893912	     18.41176131	     -7.38897851	    -10.40921174	     62.51675771	     62.51675771	      7.17123623	    -18.69942737	      8.82388948	     19.43548171	     -3.25893142	     -4.20688794	     25.71694415	     25.71694415	     12.15936584	    -12.25139572	     -1.71953677	     -8.96051895	      0.39934597	      2.54475514	     30.97964281	    -13.13968708	     -2.63465867	     62.46149565	     45.45047846	      0.00000000	      0.00000000	     16.16071992	    -12.95807467	      5.10950993	     27.39261178	     45.43331111	      0.00000000	      0.00000000
